<svg width="300" height="81" viewBox="0 0 300 81" fill="none" xmlns="http://www.w3.org/2000/svg">
<path d="M0.679993 7.74027C9.16157 7.16524 16.6369 6.87773 23.1059 6.87773C41.9379 6.87773 51.3539 18.3063 51.3539 41.1634C51.3539 66.7519 41.0753 79.5462 20.5183 79.5462C14.4805 79.5462 7.86777 79.0071 0.679993 77.9289V7.74027ZM20.5183 71.999C25.5497 71.999 29.3592 70.7412 31.9468 68.2254C34.5344 65.7097 36.2236 62.4033 37.0142 58.3063C37.8049 54.1374 38.2002 48.9263 38.2002 42.6729C38.2002 34.3351 37.0861 27.5426 34.8579 22.2955C32.6297 17.0484 28.4608 14.4249 22.3512 14.4249C19.6917 14.4249 16.6728 14.6046 13.2945 14.964V71.3521C15.8821 71.7834 18.2901 71.999 20.5183 71.999Z" fill="#31B5FF"/>
<path d="M81.3757 29.6271C78.285 29.6271 76.2724 31.7115 75.338 35.8804C74.4755 39.9775 74.0442 44.9011 74.0442 50.6513V78.468H62.1844V23.4815L72.1035 22.1877L72.6426 31.8912C73.6489 28.6567 75.4099 26.105 77.9256 24.2362C80.4413 22.2955 83.3524 21.3252 86.6588 21.3252C90.2527 21.3252 93.0918 22.3674 95.1763 24.4519C97.3326 26.5363 98.4108 29.3755 98.4108 32.9694C98.4108 38.7915 95.6076 41.7025 90.0011 41.7025C88.1323 41.7025 86.6947 41.3072 85.6884 40.5165C86.1916 38.6477 86.4431 37.0305 86.4431 35.6648C86.4431 31.6396 84.754 29.6271 81.3757 29.6271Z" fill="#31B5FF"/>
<path d="M142.76 5.15267C148.941 5.15267 153.901 6.33865 157.638 8.71062C161.448 11.0826 163.353 14.8921 163.353 20.1392C163.353 22.7268 162.598 24.8472 161.089 26.5004C159.579 28.0817 157.531 28.8723 154.943 28.8723C152.427 28.8723 150.558 28.2973 149.337 27.1473C149.912 25.566 150.199 23.769 150.199 21.7564C150.199 15.4312 147.396 12.2686 141.789 12.2686C139.058 12.2686 136.902 12.9514 135.32 14.3171C133.811 15.6109 133.056 17.5516 133.056 20.1392C133.056 22.5112 133.667 24.6675 134.889 26.6082C136.111 28.5489 137.62 30.274 139.417 31.7834C141.286 33.2928 143.802 35.1257 146.965 37.282C150.702 39.7978 153.685 42.0619 155.913 44.0745C158.213 46.0152 160.154 48.3872 161.735 51.1904C163.317 53.9218 164.107 57.0844 164.107 60.6783C164.107 67.0754 161.915 72.035 157.531 75.557C153.146 79.079 147.468 80.84 140.496 80.84C134.17 80.84 128.923 79.5821 124.754 77.0664C120.657 74.4788 118.609 70.4896 118.609 65.0988C118.609 62.5112 119.363 60.4267 120.873 58.8454C122.382 57.1922 124.395 56.3656 126.911 56.3656C129.426 56.3656 131.295 56.9406 132.517 58.0907C132.014 59.5282 131.762 61.3252 131.762 63.4815C131.762 70.3099 134.997 73.7241 141.466 73.7241C144.628 73.7241 147.216 72.8616 149.229 71.1365C151.241 69.3395 152.248 66.9316 152.248 63.9128C152.248 61.5408 151.637 59.3845 150.415 57.4438C149.193 55.5031 147.647 53.778 145.779 52.2686C143.982 50.7591 141.502 48.9262 138.339 46.7699C134.602 44.2542 131.583 42.026 129.283 40.0853C127.054 38.0727 125.15 35.7007 123.568 32.9694C121.987 30.1661 121.196 26.9676 121.196 23.3737C121.196 17.6235 123.209 13.167 127.234 10.0044C131.331 6.76992 136.506 5.15267 142.76 5.15267Z" fill="#31B5FF"/>
<path d="M203.642 73.5085C202.276 76.0242 200.263 77.8571 197.604 79.0071C195.016 80.229 192.069 80.84 188.763 80.84C183.803 80.84 179.634 79.3306 176.256 76.3117C172.95 73.2928 171.297 69.3755 171.297 64.5597C171.297 52.9155 181.683 47.0934 202.456 47.0934V37.7133C202.456 34.1194 201.917 31.4599 200.838 29.7349C199.76 27.9379 197.712 27.0395 194.693 27.0395C192.177 27.0395 190.093 27.7223 188.439 29.088C186.786 30.3818 185.96 32.2147 185.96 34.5866C185.96 36.0961 186.247 37.7133 186.822 39.4384C185.816 40.229 184.378 40.6244 182.51 40.6244C179.922 40.6244 177.873 39.9775 176.364 38.6837C174.855 37.3899 174.1 35.521 174.1 33.0772C174.1 29.6271 176.04 26.8238 179.922 24.6675C183.803 22.4393 188.979 21.3252 195.448 21.3252C200.191 21.3252 203.929 22.0439 206.66 23.4815C209.392 24.8472 211.333 27.0035 212.483 29.9505C213.704 32.8256 214.315 36.707 214.315 41.5947V69.6271C214.315 73.1491 215.43 75.521 217.658 76.743C217.083 77.8211 216.22 78.6477 215.07 79.2227C213.992 79.7978 212.734 80.0853 211.297 80.0853C209.212 80.0853 207.487 79.5103 206.121 78.3602C204.756 77.1383 203.929 75.521 203.642 73.5085ZM192.968 73.6163C196.13 73.6163 198.502 72.4303 200.084 70.0583C201.665 67.6145 202.456 64.5956 202.456 61.0017V52.4842C190.308 52.4842 184.235 56.3656 184.235 64.1284C184.235 67.0035 184.989 69.3036 186.499 71.0287C188.08 72.7537 190.236 73.6163 192.968 73.6163Z" fill="#31B5FF"/>
<path d="M234.369 0.839996C236.741 0.839996 238.646 1.41502 240.084 2.56506C241.593 3.71511 242.348 5.3683 242.348 7.52463C242.348 9.75284 241.557 11.4779 239.976 12.6998C238.466 13.8499 236.49 14.4249 234.046 14.4249C231.674 14.4249 229.769 13.8499 228.332 12.6998C226.894 11.5498 226.175 9.8966 226.175 7.74027C226.175 5.51205 226.93 3.82293 228.439 2.67288C230.021 1.45096 231.997 0.839996 234.369 0.839996ZM239.976 69.6271C239.976 73.1491 241.09 75.521 243.318 76.743C242.743 77.8211 241.809 78.6477 240.515 79.2227C239.221 79.7978 237.819 80.0853 236.31 80.0853C233.579 80.0853 231.53 79.2946 230.164 77.7133C228.799 76.132 228.116 73.9038 228.116 71.0287V23.4815H239.976V69.6271Z" fill="#31B5FF"/>
<path d="M296.379 69.6271C296.379 73.1491 297.493 75.521 299.721 76.743C299.146 77.8211 298.284 78.6477 297.134 79.2227C296.056 79.7978 294.798 80.0853 293.36 80.0853C291.276 80.0853 289.551 79.5103 288.185 78.3602C286.819 77.1383 285.993 75.521 285.705 73.5085C284.555 75.8804 282.686 77.6774 280.099 78.8993C277.583 80.1931 274.852 80.84 271.905 80.84C264.573 80.84 259.254 78.0368 255.948 72.4303C252.641 66.8238 250.988 59.636 250.988 50.8669C250.988 41.8103 252.929 34.6226 256.81 29.3036C260.764 23.9847 266.873 21.3252 275.139 21.3252C278.589 21.3252 281.716 21.7924 284.519 22.7268V2.99633L296.379 1.70253V69.6271ZM284.519 31.1365C281.213 28.9083 277.907 27.7942 274.6 27.7942C270.216 27.7942 267.34 29.8786 265.975 34.0475C264.609 38.2165 263.926 43.6432 263.926 50.3279C263.926 56.725 264.717 62.2236 266.298 66.8238C267.88 71.3521 270.791 73.6163 275.031 73.6163C278.194 73.6163 280.566 72.4303 282.147 70.0583C283.729 67.6145 284.519 64.5956 284.519 61.0017V31.1365Z" fill="#31B5FF"/>
</svg>
